<?xml version="1.0" encoding="UTF-8"?>
<svg width="50" height="400" viewBox="0 0 50 400" fill="none" xmlns="http://www.w3.org/2000/svg">
  <path d="M25 0C25 0 25 400 25 400" stroke="white" stroke-width="1" stroke-dasharray="4 4"/>
  <path d="M10 20C10 20 40 20 40 20" stroke="white" stroke-width="1"/>
  <path d="M5 40C5 40 45 40 45 40" stroke="white" stroke-width="1"/>
  <path d="M10 60C10 60 40 60 40 60" stroke="white" stroke-width="1"/>
  <path d="M5 80C5 80 45 80 45 80" stroke="white" stroke-width="1"/>
  <path d="M10 100C10 100 40 100 40 100" stroke="white" stroke-width="1"/>
  <path d="M5 120C5 120 45 120 45 120" stroke="white" stroke-width="1"/>
  <path d="M10 140C10 140 40 140 40 140" stroke="white" stroke-width="1"/>
  <path d="M5 160C5 160 45 160 45 160" stroke="white" stroke-width="1"/>
  <path d="M10 180C10 180 40 180 40 180" stroke="white" stroke-width="1"/>
  <path d="M5 200C5 200 45 200 45 200" stroke="white" stroke-width="1"/>
  <path d="M10 220C10 220 40 220 40 220" stroke="white" stroke-width="1"/>
  <path d="M5 240C5 240 45 240 45 240" stroke="white" stroke-width="1"/>
  <path d="M10 260C10 260 40 260 40 260" stroke="white" stroke-width="1"/>
  <path d="M5 280C5 280 45 280 45 280" stroke="white" stroke-width="1"/>
  <path d="M10 300C10 300 40 300 40 300" stroke="white" stroke-width="1"/>
  <path d="M5 320C5 320 45 320 45 320" stroke="white" stroke-width="1"/>
  <path d="M10 340C10 340 40 340 40 340" stroke="white" stroke-width="1"/>
  <path d="M5 360C5 360 45 360 45 360" stroke="white" stroke-width="1"/>
  <path d="M10 380C10 380 40 380 40 380" stroke="white" stroke-width="1"/>
  
  <!-- Decorative Elements -->
  <circle cx="25" cy="20" r="4" fill="white" fill-opacity="0.5"/>
  <circle cx="25" cy="100" r="4" fill="white" fill-opacity="0.5"/>
  <circle cx="25" cy="180" r="4" fill="white" fill-opacity="0.5"/>
  <circle cx="25" cy="260" r="4" fill="white" fill-opacity="0.5"/>
  <circle cx="25" cy="340" r="4" fill="white" fill-opacity="0.5"/>
  
  <!-- Om Symbol at the top -->
  <path d="M25,10 C28,7 32,9 32,12 C32,15 28,17 25,15 C22,17 18,15 18,12 C18,9 22,7 25,10 Z" fill="white" fill-opacity="0.8"/>
</svg> 