<svg width="1396" height="1229" viewBox="0 0 1396 1229" fill="none" xmlns="http://www.w3.org/2000/svg">
<rect width="1396" height="1229" fill="#FFF4EC"/>
<path d="M435.841 353C435.841 281.203 494.044 223 565.841 223C614.24 223 656.462 249.449 678.841 288.682M921.841 353C921.841 281.203 863.638 223 791.841 223C743.442 223 701.22 249.449 678.841 288.682M343.841 538C343.841 474.649 389.156 421.882 449.14 410.344C457.137 408.805 465.395 408 473.841 408C520.494 408 561.406 432.574 584.341 469.484C586.584 473.094 588.655 476.822 590.543 480.656C599.058 497.953 603.841 517.418 603.841 538C603.841 560.451 598.15 581.572 588.132 600M943.841 730C943.841 725.099 943.57 720.261 943.042 715.5C941.133 698.303 935.87 682.119 927.922 667.615C926.042 664.185 924.012 660.849 921.841 657.616C898.506 622.867 858.844 600 813.841 600C812.249 600 810.664 600.029 809.086 600.085M1029.84 600C1030.6 600 1031.36 600.007 1032.12 600.02M1032.12 600.02C1042.15 581.587 1047.84 560.458 1047.84 538C1047.84 466.203 989.638 408 917.841 408C915.055 408 912.289 408.088 909.545 408.26C865.69 411.022 827.735 435.529 806.341 471.121M1032.12 600.02C1023.55 614.035 1005.69 630.846 997.841 637.5M806.341 471.121C783.608 433.303 742.18 408 694.841 408C690.998 408 687.194 408.167 683.436 408.493M806.341 471.121C808.354 474.471 810.221 477.919 811.933 481.457C820.204 498.553 824.841 517.735 824.841 538C824.841 560.485 819.133 581.637 809.086 600.085M678.841 288.682C689.66 307.648 695.841 329.602 695.841 353C695.841 372.851 691.392 391.663 683.436 408.493M683.436 408.493C680.511 408.748 677.615 409.099 674.749 409.543C654.317 412.713 635.458 420.641 619.341 432.159M809.086 600.085C807.301 600.15 805.526 600.25 803.76 600.385C759.621 603.77 721.652 629.199 700.841 665.682M254.817 796H139.004C137.888 796 137.117 796.848 137.012 797.793C136.885 798.937 137.786 799.761 138.39 800.741C148.578 817.266 249.951 978.981 328.347 1000.52C329.596 1000.86 330.828 1001 332.123 1001C587.707 1001.06 965.088 1012.3 1076.72 1002.73C1078.55 1002.58 1080.17 1002.12 1081.82 1001.32C1169.05 958.761 1248.05 816.757 1256.74 800.765C1257.3 799.745 1258.19 798.811 1257.99 797.668C1257.83 796.772 1257.07 796 1256.01 796H1141.87M254.817 796C243.395 776.654 236.841 754.093 236.841 730C236.841 660.614 291.201 603.924 359.656 600.195C362.035 600.066 364.43 600 366.841 600C413.494 600 454.406 624.574 477.341 661.484C478.627 663.553 479.856 665.661 481.026 667.805C491.11 686.279 496.841 707.47 496.841 730C496.841 754.093 490.287 776.654 478.865 796M254.817 796H475.817H478.865M478.865 796H699.865M699.865 796C711.287 776.654 717.841 754.093 717.841 730C717.841 707.47 712.11 686.279 702.026 667.805C701.638 667.093 701.243 666.385 700.841 665.682M699.865 796H701.817H917.817H925.865H1141.87M1141.87 796C1153.29 776.654 1159.84 754.093 1159.84 730C1159.84 687.693 1139.63 650.107 1108.34 626.368M588.132 600C588.035 600 587.938 600 587.841 600C585.43 600 583.035 600.066 580.656 600.195C567.428 600.916 554.726 603.614 542.841 607.999M588.132 600C636.41 600.106 678.507 626.528 700.841 665.682" stroke="#F7B239" stroke-width="60"/>
</svg>
